<svg width="32" height="32" viewBox="0 0 32 32" fill="none" xmlns="http://www.w3.org/2000/svg">
<rect width="32" height="32" rx="16" fill="#3040D3"/>
<g opacity="0.2">
<path fill-rule="evenodd" clip-rule="evenodd" d="M17.2472 9.75144C17.4288 9.60004 17.6384 9.4859 17.8642 9.41554C18.0899 9.34518 18.3273 9.31997 18.5627 9.34137C18.7982 9.36277 19.0271 9.43034 19.2365 9.54023C19.4458 9.65013 19.6315 9.80019 19.7828 9.98184L23.7824 14.7818C23.9404 14.9625 24.0607 15.1729 24.1362 15.4007C24.2118 15.6286 24.2409 15.8692 24.2221 16.1085C24.2032 16.3477 24.1367 16.5808 24.0264 16.794C23.9162 17.0072 23.7644 17.1962 23.58 17.3498C23.3956 17.5035 23.1823 17.6187 22.9528 17.6887C22.7232 17.7588 22.4819 17.7822 22.2432 17.7576C22.0044 17.733 21.773 17.6609 21.5625 17.5455C21.3521 17.4301 21.1668 17.2739 21.0176 17.0858L17.0168 12.2858C16.7114 11.9192 16.5641 11.4462 16.6073 10.9709C16.6505 10.4957 16.8807 10.0571 17.2472 9.75144Z" fill="white"/>
<path fill-rule="evenodd" clip-rule="evenodd" d="M17.2472 22.1172C16.8807 21.8116 16.6505 21.3729 16.6073 20.8977C16.5641 20.4224 16.7114 19.9495 17.0168 19.5828L21.0176 14.7828C21.327 14.4291 21.7624 14.2105 22.2309 14.1735C22.6993 14.1366 23.1637 14.2843 23.5247 14.5852C23.8857 14.886 24.1147 15.3161 24.1629 15.7835C24.211 16.2509 24.0745 16.7187 23.7824 17.0868L19.7828 21.8868C19.6315 22.0684 19.4458 22.2185 19.2365 22.3284C19.0271 22.4383 18.7982 22.5059 18.5627 22.5273C18.3273 22.5487 18.0899 22.5235 17.8642 22.4531C17.6384 22.3827 17.4288 22.2686 17.2472 22.1172Z" fill="white"/>
<path fill-rule="evenodd" clip-rule="evenodd" d="M21.8 15.9348C21.8 16.4122 21.6103 16.87 21.2728 17.2076C20.9352 17.5451 20.4774 17.7348 20 17.7348H10.4C9.92259 17.7348 9.46475 17.5451 9.12718 17.2076C8.78962 16.87 8.59998 16.4122 8.59998 15.9348C8.59998 15.4574 8.78962 14.9995 9.12718 14.662C9.46475 14.3244 9.92259 14.1348 10.4 14.1348H20C20.4774 14.1348 20.9352 14.3244 21.2728 14.662C21.6103 14.9995 21.8 15.4574 21.8 15.9348Z" fill="white"/>
</g>
<path fill-rule="evenodd" clip-rule="evenodd" d="M16.2164 9.47294C16.3386 9.37114 16.4963 9.32205 16.6547 9.33645C16.8131 9.35085 16.9593 9.42757 17.0612 9.54974L21.0608 14.3497C21.1581 14.4724 21.2036 14.6284 21.1876 14.7842C21.1715 14.94 21.0952 15.0833 20.9749 15.1836C20.8545 15.2839 20.6998 15.3331 20.5436 15.3208C20.3875 15.3085 20.2423 15.2356 20.1392 15.1177L16.1396 10.3177C16.0378 10.1955 15.9887 10.0379 16.0031 9.87944C16.0175 9.72103 16.0942 9.57481 16.2164 9.47294Z" fill="white"/>
<path fill-rule="evenodd" clip-rule="evenodd" d="M16.2164 19.9943C16.0942 19.8924 16.0175 19.7462 16.0031 19.5878C15.9887 19.4294 16.0378 19.2717 16.1396 19.1495L20.1392 14.3495C20.2423 14.2316 20.3875 14.1587 20.5436 14.1464C20.6998 14.1341 20.8545 14.1833 20.9749 14.2836C21.0952 14.3839 21.1715 14.5272 21.1876 14.683C21.2036 14.8389 21.1581 14.9948 21.0608 15.1175L17.0612 19.9175C16.9593 20.0396 16.8131 20.1164 16.6547 20.1308C16.4963 20.1452 16.3386 20.0961 16.2164 19.9943Z" fill="white"/>
<path fill-rule="evenodd" clip-rule="evenodd" d="M21.2 14.7348C21.2 14.8939 21.1368 15.0465 21.0243 15.159C20.9117 15.2716 20.7591 15.3348 20.6 15.3348H8.6C8.44087 15.3348 8.28826 15.2716 8.17574 15.159C8.06321 15.0465 8 14.8939 8 14.7348C8 14.5756 8.06321 14.423 8.17574 14.3105C8.28826 14.198 8.44087 14.1348 8.6 14.1348H20.6C20.7591 14.1348 20.9117 14.198 21.0243 14.3105C21.1368 14.423 21.2 14.5756 21.2 14.7348Z" fill="white"/>
</svg>
