<svg width="24" height="341" viewBox="0 0 24 341" fill="none" xmlns="http://www.w3.org/2000/svg">
<g clip-path="url(#clip0_956_846)">
<g clip-path="url(#clip1_956_846)">
<path d="M24 10.7202V13.2827C22.296 13.2827 20.7273 14.714 20.7273 16.3994C20.7273 18.7787 22.1247 22.91 14.1818 22.91V20.726C19.5458 20.726 18.5084 18.9805 18.5084 16.3983C18.5084 14.114 19.8295 12.5802 20.9935 12.0009C19.8295 11.4216 18.5084 10.4322 18.5084 8.3878C18.5084 5.80016 19.5338 3.26925 14.1818 3.2758V1.0918C22.1291 1.0918 20.7273 6.00743 20.7273 8.3878C20.7273 10.0722 22.296 10.7202 24 10.7202ZM3.27273 8.3878C3.27273 6.00743 1.87091 1.0918 9.81818 1.0918V3.2758C4.46618 3.26816 5.49164 5.79907 5.49164 8.3878C5.49164 10.4333 4.17055 11.4216 3.00655 12.0009C4.17055 12.5802 5.49164 14.1151 5.49164 16.3983C5.49164 18.9805 4.45418 20.726 9.81818 20.726V22.91C1.87527 22.91 3.27273 18.7787 3.27273 16.3983C3.27273 14.7129 1.704 13.2816 0 13.2816V10.7191C1.704 10.7202 3.27273 10.0722 3.27273 8.3878Z" fill="black"/>
</g>
</g>
<defs>
<clipPath id="clip0_956_846">
<rect width="24" height="24" fill="white"/>
</clipPath>
<clipPath id="clip1_956_846">
<rect width="24" height="21.8182" fill="white" transform="translate(0 1.0918)"/>
</clipPath>
</defs>
</svg>
