<svg width="40" height="41" viewBox="0 0 40 41" fill="none" xmlns="http://www.w3.org/2000/svg">
<path d="M31.75 36.4993L26.875 31.666L23.2084 35.3327L22.0417 34.166C21.4028 33.5271 21.0834 32.7355 21.0834 31.791C21.0834 30.8466 21.4028 30.0549 22.0417 29.416L29.0834 22.3743C29.7223 21.7355 30.5139 21.416 31.4584 21.416C32.4028 21.416 33.1945 21.7355 33.8334 22.3743L35 23.541L31.3334 27.2077L36.1667 32.0827C36.5 32.416 36.6667 32.8049 36.6667 33.2493C36.6667 33.6938 36.5 34.0827 36.1667 34.416L34.0834 36.4993C33.75 36.8327 33.3612 36.9993 32.9167 36.9993C32.4723 36.9993 32.0834 36.8327 31.75 36.4993ZM36.6667 10.3327L17.75 29.2493L17.9584 29.416C18.5973 30.0549 18.9167 30.8466 18.9167 31.791C18.9167 32.7355 18.5973 33.5271 17.9584 34.166L16.7917 35.3327L13.125 31.666L8.25004 36.4993C7.91671 36.8327 7.52782 36.9993 7.08337 36.9993C6.63893 36.9993 6.25004 36.8327 5.91671 36.4993L3.83337 34.416C3.50004 34.0827 3.33337 33.6938 3.33337 33.2493C3.33337 32.8049 3.50004 32.416 3.83337 32.0827L8.66671 27.2077L5.00004 23.541L6.16671 22.3743C6.8056 21.7355 7.59726 21.416 8.54171 21.416C9.48615 21.416 10.2778 21.7355 10.9167 22.3743L11.0834 22.5827L30 3.66602H36.6667V10.3327ZM11.5834 18.5827L3.33337 10.3327V3.66602H10L18.25 11.916L11.5834 18.5827Z" fill="black"/>
</svg>
