<svg width="40" height="40" viewBox="0 0 40 40" fill="none" xmlns="http://www.w3.org/2000/svg">
<mask id="mask0_662_334" style="mask-type:luminance" maskUnits="userSpaceOnUse" x="2" y="2" width="36" height="36">
<path d="M36.6666 23.334H23.3333V36.6673H36.6666V23.334ZM10.8333 3.33398L18.3333 16.6673H3.33331L10.8333 3.33398ZM30 16.6673C31.7681 16.6673 33.4638 15.9649 34.714 14.7147C35.9643 13.4645 36.6666 11.7688 36.6666 10.0007C36.6666 8.23254 35.9643 6.53685 34.714 5.28661C33.4638 4.03636 31.7681 3.33398 30 3.33398C28.2319 3.33398 26.5362 4.03636 25.2859 5.28661C24.0357 6.53685 23.3333 8.23254 23.3333 10.0007C23.3333 11.7688 24.0357 13.4645 25.2859 14.7147C26.5362 15.9649 28.2319 16.6673 30 16.6673Z" fill="white" stroke="white" stroke-width="1.5" stroke-linejoin="round"/>
<path d="M3.33331 23.334L16.6666 36.6673M16.6666 23.334L3.33331 36.6673" stroke="white" stroke-width="1.5" stroke-linecap="round" stroke-linejoin="round"/>
</mask>
<g mask="url(#mask0_662_334)">
<path d="M0 0H40V40H0V0Z" fill="black"/>
</g>
</svg>
