<svg width="685" height="905" viewBox="0 0 685 905" fill="none" xmlns="http://www.w3.org/2000/svg">
<g clip-path="url(#clip0_662_346)" filter="url(#filter0_b_662_346)">
<path opacity="0.88" d="M349.594 825.17C511.732 825.17 643.17 693.732 643.17 531.594C643.17 369.456 511.732 238.018 349.594 238.018C187.456 238.018 56.0176 369.456 56.0176 531.594C56.0176 693.732 187.456 825.17 349.594 825.17Z" stroke="#8D99FE" stroke-width="5" stroke-linecap="round" stroke-dasharray="1000 1000"/>
<path opacity="0.95" d="M431.526 799.579C579.531 754.33 662.831 597.666 617.581 449.66C572.331 301.655 415.667 218.356 267.662 263.605C119.657 308.855 36.3571 465.519 81.6068 613.524C126.857 761.529 283.521 844.829 431.526 799.579Z" stroke="#8D99FE" stroke-width="5" stroke-linecap="round" stroke-dasharray="1000 1000"/>
<path opacity="0.39" d="M498.835 752.852C621.034 670.428 653.278 504.549 570.854 382.351C488.43 260.152 322.551 227.909 200.352 310.333C78.1539 392.756 45.9103 558.636 128.334 680.834C210.758 803.032 376.637 835.276 498.835 752.852Z" stroke="#8D99FE" stroke-width="5" stroke-linecap="round" stroke-dasharray="1000 1000"/>
<path opacity="0.8" d="M546.634 691.154C634.756 582.332 617.976 422.677 509.154 334.554C400.332 246.432 240.676 263.212 152.554 372.034C64.4314 480.856 81.2118 640.512 190.034 728.634C298.856 816.757 458.511 799.976 546.634 691.154Z" stroke="#8D99FE" stroke-width="5" stroke-linecap="round" stroke-dasharray="1000 1000"/>
<path opacity="0.42" d="M573.839 617.672C621.379 493.825 559.52 354.888 435.673 307.348C311.826 259.807 172.889 321.666 125.349 445.513C77.8087 569.36 139.667 708.297 263.514 755.837C387.361 803.378 526.298 741.519 573.839 617.672Z" stroke="#8D99FE" stroke-width="5" stroke-linecap="round" stroke-dasharray="1000 1000"/>
<path opacity="0.16" d="M575.896 547.418C584.635 422.435 490.401 314.031 365.418 305.291C240.435 296.552 132.032 390.785 123.292 515.769C114.552 640.752 208.786 749.155 333.769 757.895C458.752 766.635 567.156 672.401 575.896 547.418Z" stroke="#8D99FE" stroke-width="5" stroke-linecap="round" stroke-dasharray="1000 1000"/>
<path opacity="0.96" d="M557.632 483.564C531.106 368.668 416.461 297.03 301.565 323.555C186.669 350.081 115.03 464.726 141.556 579.622C168.082 694.518 282.727 766.157 397.623 739.631C512.519 713.105 584.157 598.46 557.632 483.564Z" stroke="#8D99FE" stroke-width="5" stroke-linecap="round" stroke-dasharray="1000 1000"/>
<path opacity="0.09" d="M522.942 431.511C467.668 335.774 345.249 302.971 249.511 358.246C153.773 413.52 120.971 535.939 176.245 631.677C231.52 727.415 353.939 760.217 449.677 704.943C545.414 649.668 578.217 527.249 522.942 431.511Z" stroke="#8D99FE" stroke-width="5" stroke-linecap="round" stroke-dasharray="881 1000"/>
<path opacity="0.37" d="M477.006 394.96C401.546 324.592 283.329 328.721 212.962 404.181C142.594 479.641 146.722 597.857 222.182 668.225C297.642 738.593 415.859 734.464 486.226 659.004C556.594 583.544 552.466 465.328 477.006 394.96Z" stroke="#8D99FE" stroke-width="5" stroke-linecap="round" stroke-dasharray="764 1000"/>
<path opacity="0.28" d="M425.641 375.673C339.529 333.674 235.674 369.434 193.674 455.546C151.674 541.658 187.434 645.514 273.547 687.513C359.659 729.513 463.514 693.753 505.514 607.641C547.514 521.528 511.753 417.673 425.641 375.673Z" stroke="#8D99FE" stroke-width="5" stroke-linecap="round" stroke-dasharray="655 1000"/>
<path opacity="0.59" d="M374.644 373.432C287.294 359.598 205.268 419.193 191.433 506.543C177.598 593.893 237.194 675.92 324.544 689.754C411.894 703.589 493.92 643.994 507.755 556.644C521.59 469.294 461.994 387.267 374.644 373.432Z" stroke="#8D99FE" stroke-width="5" stroke-linecap="round" stroke-dasharray="554 1000"/>
<path opacity="0.71" d="M326.631 386.612C246.56 399.294 191.931 474.485 204.613 554.556C217.295 634.627 292.486 689.256 372.556 676.574C452.627 663.892 507.257 588.701 494.575 508.63C481.893 428.56 406.702 373.93 326.631 386.612Z" stroke="#8D99FE" stroke-width="5" stroke-linecap="round" stroke-dasharray="462 1000"/>
<path opacity="0.44" d="M291.096 411.654C224.856 443.962 197.348 523.85 229.655 590.091C261.963 656.331 341.852 683.839 408.092 651.531C474.332 619.224 501.84 539.335 469.532 473.095C437.225 406.855 357.336 379.347 291.096 411.654Z" stroke="#8D99FE" stroke-width="5" stroke-linecap="round" stroke-dasharray="378 1000"/>
<path opacity="0.85" d="M267.686 443.759C219.176 488.995 216.522 564.992 261.759 613.502C306.995 662.012 382.991 664.665 431.501 619.429C480.011 574.193 482.665 498.196 437.429 449.686C392.193 401.176 316.196 398.523 267.686 443.759Z" stroke="#8D99FE" stroke-width="5" stroke-linecap="round" stroke-dasharray="302 933"/>
<path opacity="0.69" d="M257.141 478.215C227.662 529.275 245.156 594.566 296.216 624.045C347.277 653.525 412.567 636.03 442.046 584.97C471.526 533.91 454.032 468.62 402.971 439.14C351.911 409.66 286.621 427.155 257.141 478.215Z" stroke="#8D99FE" stroke-width="5" stroke-linecap="round" stroke-dasharray="235 829"/>
<path opacity="0.73" d="M258.577 510.581C246.972 560.848 278.314 611.005 328.581 622.61C378.848 634.215 429.005 602.873 440.61 552.606C452.216 502.339 420.874 452.182 370.607 440.577C320.34 428.972 270.182 460.314 258.577 510.581Z" stroke="#8D99FE" stroke-width="5" stroke-linecap="round" stroke-dasharray="176 726"/>
<path opacity="0.34" d="M269.723 537.178C272.807 581.29 311.067 614.549 355.179 611.464C399.291 608.38 432.55 570.12 429.465 526.008C426.381 481.896 388.12 448.637 344.009 451.722C299.897 454.806 266.638 493.067 269.723 537.178Z" stroke="#8D99FE" stroke-width="5" stroke-linecap="round" stroke-dasharray="126 622"/>
<path opacity="0.56" d="M287.304 555.505C300.509 589.907 339.103 607.09 373.505 593.884C407.907 580.678 425.09 542.085 411.884 507.683C398.678 473.281 360.085 456.098 325.683 469.304C291.281 482.509 274.098 521.103 287.304 555.505Z" stroke="#8D99FE" stroke-width="5" stroke-linecap="round" stroke-dasharray="84 518"/>
<path opacity="0.28" d="M308.112 565.185C326.664 588.095 360.275 591.627 383.185 573.075C406.095 554.523 409.628 520.912 391.076 498.002C372.524 475.092 338.912 471.559 316.002 490.111C293.092 508.663 289.56 542.275 308.112 565.185Z" stroke="#8D99FE" stroke-width="5" stroke-linecap="round" stroke-dasharray="50 415"/>
<path opacity="0.22" d="M327.208 564.782C345.537 577.145 370.419 572.309 382.783 553.979C395.146 535.649 390.31 510.767 371.98 498.404C353.65 486.04 328.768 490.877 316.405 509.207C304.041 527.536 308.878 552.418 327.208 564.782Z" stroke="#8D99FE" stroke-width="5" stroke-linecap="round" stroke-dasharray="25 311"/>
<path opacity="0.98" d="M341.791 557.116C355.887 561.425 370.807 553.492 375.117 539.396C379.426 525.3 371.493 510.38 357.397 506.071C343.301 501.761 328.381 509.694 324.071 523.79C319.762 537.886 327.695 552.806 341.791 557.116Z" stroke="#8D99FE" stroke-width="5" stroke-linecap="round" stroke-dasharray="8 207"/>
<path opacity="0.44" d="M349.594 544.937C356.964 544.937 362.938 538.962 362.938 531.592C362.938 524.223 356.964 518.248 349.594 518.248C342.224 518.248 336.25 524.223 336.25 531.592C336.25 538.962 342.224 544.937 349.594 544.937Z" stroke="#8D99FE" stroke-width="5" stroke-linecap="round"/>
<g clip-path="url(#clip1_662_346)">
<path d="M342.595 288C294.563 288 246.53 302.507 205.583 331.511C218.693 346.703 232.075 361.842 245.003 376.279C261.15 364.519 277.704 357.295 294.02 353.847L303.961 343.907L310.631 337.237L317.268 343.908L325.041 351.68C404.307 357.362 466.528 447.454 427.13 528.393L546.43 647.693C601.244 556.408 589.307 436.397 510.564 357.656C464.141 311.231 403.37 288.001 342.597 288.001L342.595 288ZM151.376 295.74L114.157 332.956C152.363 362.991 194.849 399.307 229.932 430.454L237.389 437.093L230.342 444.14L182.648 491.833L202.468 511.623L237.201 476.89L507.134 746.855L585 766.265L563.008 690.981L535.849 663.821L535.889 663.767L417.345 545.223L417.313 545.268L293.075 421.016L330.42 383.672L310.631 363.883L263.848 410.635L256.833 417.618L250.225 410.289C218.828 375.545 181.723 333.77 151.376 295.74ZM150.087 386.409C82.6809 479.317 90.8507 609.816 174.625 693.592C227.912 746.879 300.098 769.549 369.492 761.673C237.105 762.677 121.024 632.243 160.97 496.742L156.064 491.833L162.702 485.164L165.974 481.892C173.049 463.255 183.165 444.625 196.68 426.299C181.283 412.847 165.751 399.549 150.087 386.407V386.409ZM271.273 432.75C283.639 432.75 293.643 442.785 293.643 455.15C293.643 457.389 293.309 459.529 292.697 461.569L531.235 700.137L517.956 713.414L280.209 475.695C277.39 476.923 274.348 477.555 271.273 477.551C258.906 477.551 248.873 467.52 248.873 455.151C248.873 442.783 258.906 432.75 271.273 432.75Z" fill="black"/>
</g>
</g>
<defs>
<filter id="filter0_b_662_346" x="16" y="198" width="667" height="667" filterUnits="userSpaceOnUse" color-interpolation-filters="sRGB">
<feFlood flood-opacity="0" result="BackgroundImageFix"/>
<feGaussianBlur in="BackgroundImageFix" stdDeviation="5"/>
<feComposite in2="SourceAlpha" operator="in" result="effect1_backgroundBlur_662_346"/>
<feBlend mode="normal" in="SourceGraphic" in2="effect1_backgroundBlur_662_346" result="shape"/>
</filter>
<clipPath id="clip0_662_346">
<rect width="647" height="647" fill="white" transform="translate(26 208)"/>
</clipPath>
<clipPath id="clip1_662_346">
<rect width="494.662" height="500" fill="white" transform="translate(90 288)"/>
</clipPath>
</defs>
</svg>
