<svg width="24" height="25" viewBox="0 0 24 25" fill="none" xmlns="http://www.w3.org/2000/svg">
<g clip-path="url(#clip0_956_898)">
<mask id="mask0_956_898" style="mask-type:luminance" maskUnits="userSpaceOnUse" x="0" y="0" width="24" height="25">
<path d="M24 0.5H0V24.5H24V0.5Z" fill="white"/>
</mask>
<g mask="url(#mask0_956_898)">
<path fill-rule="evenodd" clip-rule="evenodd" d="M12 24.5C18.627 24.5 24 19.127 24 12.5C24 5.87296 18.6284 0.5 12 0.5C5.37296 0.5 0 5.87296 0 12.5C0 19.127 5.37296 24.5 12 24.5ZM19.8346 13.8104V14.5835C19.8346 14.6278 19.8075 14.6673 19.7681 14.6845C19.5264 14.7881 18.6992 15.1679 18.3552 15.6462C18.1638 15.9125 17.9823 16.2038 17.7999 16.4965C17.1456 17.5466 16.4799 18.615 15.3075 18.615H9.05305C6.8363 18.615 5.03998 16.8125 5.03998 14.5884V14.5169C5.03998 14.4577 5.08806 14.4096 5.14726 14.4096H8.63384C8.70288 14.4096 8.75344 14.4737 8.74728 14.5415C8.72262 14.7684 8.76454 15.0002 8.87179 15.211C9.07894 15.6314 9.50798 15.894 9.97155 15.894H11.6976V14.5465H9.99126C9.90374 14.5465 9.85195 14.4454 9.90251 14.3739C9.9128 14.3581 9.92387 14.3419 9.93548 14.3249C9.94472 14.3114 9.95431 14.2974 9.96414 14.2826C10.1257 14.0533 10.3562 13.697 10.5855 13.2914C10.7421 13.0177 10.8937 12.7255 11.0158 12.4321C11.0387 12.3829 11.0573 12.3326 11.0756 12.2832L11.0799 12.2718C11.0885 12.2475 11.0972 12.2236 11.1058 12.2001C11.1304 12.1327 11.1541 12.0679 11.1724 12.003C11.1925 11.9426 11.2094 11.8797 11.2256 11.819L11.2365 11.7786C11.2944 11.5296 11.3191 11.2658 11.3191 10.992C11.3191 10.8848 11.3142 10.7726 11.3043 10.6653C11.2994 10.5482 11.2846 10.4311 11.2698 10.314C11.2599 10.2104 11.2414 10.1081 11.2217 10.0008C11.197 9.84423 11.1625 9.6889 11.123 9.53231L11.1095 9.47314C11.1007 9.44112 11.0923 9.40954 11.0839 9.37814C11.0643 9.30436 11.0449 9.23151 11.0207 9.15628C10.9233 8.8197 10.8111 8.49175 10.6928 8.18476C10.6498 8.0631 10.6006 7.94635 10.5515 7.8296L10.551 7.82847C10.4938 7.68995 10.4359 7.56134 10.3809 7.43903L10.3365 7.34023C10.302 7.27119 10.2724 7.20831 10.2428 7.1442C10.2095 7.07146 10.175 6.99874 10.1405 6.92967C10.1308 6.90897 10.1206 6.88883 10.1106 6.86903C10.095 6.83821 10.0797 6.80803 10.0677 6.77804L9.85688 6.38844C9.82728 6.33543 9.87662 6.27255 9.93454 6.28858L11.2537 6.64612H11.2574L11.2611 6.64702L11.2624 6.64735L11.4362 6.69543L11.6273 6.74967L11.6976 6.7694V5.9853C11.6976 5.60679 12.0009 5.2998 12.3757 5.2998C12.5631 5.2998 12.7332 5.37623 12.8553 5.50076C12.9773 5.6253 13.0538 5.79543 13.0538 5.9853V7.14914L13.1943 7.18858C13.2054 7.19228 13.2165 7.19722 13.2264 7.2046L13.2718 7.23906C13.3001 7.26063 13.334 7.28644 13.3731 7.31556C13.393 7.33148 13.4134 7.34879 13.435 7.36701C13.467 7.39399 13.5013 7.423 13.5395 7.45242C13.6665 7.55476 13.8181 7.68668 13.9846 7.83831C14.029 7.87655 14.0721 7.91599 14.1116 7.95546C14.3261 8.15516 14.5665 8.38943 14.7958 8.64834C14.86 8.72106 14.9228 8.79503 14.9869 8.87271C15.0096 8.9006 15.0327 8.92833 15.0557 8.95596C15.0979 9.00649 15.1398 9.05679 15.178 9.10698L15.2213 9.1644C15.2861 9.25008 15.3529 9.33838 15.4123 9.42999C15.4273 9.45302 15.4432 9.47628 15.4592 9.49958C15.4799 9.5299 15.5007 9.56028 15.5196 9.59026C15.6132 9.73204 15.6958 9.87876 15.7748 10.0255C15.808 10.0933 15.8426 10.1672 15.8721 10.24C15.9597 10.436 16.0287 10.6358 16.0731 10.8355C16.0867 10.8786 16.0965 10.9255 16.1015 10.9674V10.9772C16.1162 11.0364 16.1212 11.0993 16.1261 11.1634C16.1458 11.3681 16.136 11.5727 16.0916 11.7786C16.0731 11.8662 16.0485 11.9488 16.0189 12.0363L16.0088 12.0649C15.9825 12.1399 15.9554 12.217 15.9215 12.2903C15.8475 12.4616 15.76 12.633 15.6564 12.7933C15.6231 12.8525 15.5837 12.9153 15.5442 12.9745C15.523 13.0054 15.5016 13.0353 15.4805 13.0647C15.4588 13.0951 15.4372 13.1252 15.4172 13.1546C15.363 13.2285 15.305 13.3062 15.2458 13.3752C15.1928 13.448 15.1386 13.5207 15.0794 13.5848C14.9968 13.6822 14.9179 13.7747 14.8353 13.8635C14.786 13.9214 14.733 13.9806 14.6787 14.0336C14.6332 14.0844 14.5867 14.1307 14.5432 14.174L14.5221 14.1951C14.4395 14.2777 14.3705 14.3418 14.3125 14.3948L14.1769 14.5194C14.1572 14.5366 14.1313 14.5465 14.1042 14.5465H13.0538V15.894H14.3754C14.6713 15.894 14.9524 15.7892 15.1793 15.5969L15.1853 15.5916C15.2732 15.5149 15.6056 15.225 15.9967 14.7931C16.0102 14.7783 16.0275 14.7672 16.0472 14.7622L19.6978 13.7069C19.7656 13.6871 19.8346 13.7389 19.8346 13.8104ZM5.9203 12.9034L5.97209 12.8221L9.09377 7.9386C9.13937 7.86708 9.24665 7.8745 9.28116 7.95215C9.80268 9.12095 10.2527 10.5745 10.0418 11.4795C9.95185 11.8518 9.70529 12.356 9.42788 12.8221C9.39212 12.8899 9.35268 12.9565 9.31076 13.0206C9.29102 13.0502 9.25774 13.0674 9.22198 13.0674H6.01153C5.92524 13.0674 5.8747 12.9737 5.9203 12.9034Z" fill="#1A2028"/>
</g>
</g>
<defs>
<clipPath id="clip0_956_898">
<rect width="24" height="24" fill="white" transform="translate(0 0.5)"/>
</clipPath>
</defs>
</svg>
