<svg width="793" height="589" viewBox="0 0 793 589" fill="none" xmlns="http://www.w3.org/2000/svg">
<rect x="1" y="1" width="791" height="587" rx="11" stroke="#BCCBDD" stroke-width="2" stroke-dasharray="6 4"/>
<path d="M395.246 110C360.223 110 325.199 120.578 295.342 141.727C304.901 152.804 314.659 163.843 324.086 174.37C335.859 165.795 347.93 160.528 359.827 158.014L367.076 150.765L371.939 145.902L376.779 150.766L382.446 156.433C440.244 160.576 485.614 226.269 456.887 285.287L543.876 372.276C583.844 305.714 575.14 218.206 517.724 160.791C483.874 126.939 439.56 110 395.246 110ZM255.816 115.644L228.677 142.781C256.535 164.681 287.515 191.161 313.097 213.873L318.534 218.713L313.395 223.852L278.618 258.629L293.071 273.059L318.397 247.733L515.223 444.582L572 458.735L555.964 403.84L536.161 384.036L536.19 383.997L449.751 297.559L449.728 297.592L359.138 206.991L386.368 179.761L371.939 165.332L337.826 199.421L332.711 204.513L327.893 199.169C305 173.835 277.944 143.374 255.816 115.644ZM254.876 181.757C205.726 249.502 211.683 344.657 272.768 405.744C311.623 444.599 364.259 461.129 414.859 455.387C318.327 456.119 233.684 361.011 262.812 262.208L259.234 258.629L264.074 253.765L266.46 251.38C271.619 237.79 278.995 224.206 288.85 210.843C277.623 201.034 266.298 191.339 254.876 181.757ZM343.241 215.547C352.258 215.547 359.552 222.864 359.552 231.88C359.552 233.513 359.309 235.073 358.862 236.561L532.796 410.517L523.114 420.198L349.757 246.861C347.701 247.756 345.483 248.217 343.241 248.214C334.223 248.214 326.908 240.9 326.908 231.881C326.908 222.863 334.223 215.547 343.241 215.547Z" fill="black"/>
</svg>
