<svg width="24" height="25" viewBox="0 0 24 25" fill="none" xmlns="http://www.w3.org/2000/svg">
<g clip-path="url(#clip0_942_3166)">
<g clip-path="url(#clip1_942_3166)">
<path fill-rule="evenodd" clip-rule="evenodd" d="M3.83836 12.021C3.83836 8.31128 6.8457 5.30393 10.5554 5.30393C14.2652 5.30393 17.2725 8.31128 17.2725 12.021C17.2725 13.8306 16.557 15.473 15.3934 16.6808C15.3605 16.7062 15.3288 16.7339 15.2986 16.764C15.2684 16.7942 15.2407 16.8258 15.2154 16.8589C14.0075 18.0225 12.365 18.7381 10.5554 18.7381C6.8457 18.7381 3.83836 15.7308 3.83836 12.021ZM15.9462 18.7686C14.4687 19.9505 12.5946 20.6573 10.5554 20.6573C5.78577 20.6573 1.91919 16.7907 1.91919 12.021C1.91919 7.25135 5.78577 3.38477 10.5554 3.38477C15.3251 3.38477 19.1917 7.25135 19.1917 12.021C19.1917 14.0601 18.485 15.9342 17.3032 17.4116L20.8298 20.9382C21.2046 21.313 21.2046 21.9206 20.8298 22.2953C20.4551 22.67 19.8475 22.67 19.4727 22.2953L15.9462 18.7686Z" fill="#A7B8CF"/>
</g>
</g>
<defs>
<clipPath id="clip0_942_3166">
<rect width="23.03" height="24" fill="white" transform="translate(0 0.980469)"/>
</clipPath>
<clipPath id="clip1_942_3166">
<rect width="23.03" height="24" fill="white" transform="translate(0 0.980469)"/>
</clipPath>
</defs>
</svg>
