<svg width="17" height="16" viewBox="0 0 17 16" fill="none" xmlns="http://www.w3.org/2000/svg">
<g clip-path="url(#clip0_956_896)">
<path fill-rule="evenodd" clip-rule="evenodd" d="M2.3328 2.19461C2.45782 2.06959 2.62739 1.99935 2.8042 1.99935H8.8042C8.98101 1.99935 9.15058 2.06959 9.27561 2.19461C9.40063 2.31964 9.47087 2.48921 9.47087 2.66602V3.33268C9.47087 3.70087 9.76935 3.99935 10.1375 3.99935C10.5057 3.99935 10.8042 3.70087 10.8042 3.33268V2.66602C10.8042 2.13558 10.5934 1.62688 10.2184 1.2518C9.84334 0.87673 9.33464 0.666016 8.8042 0.666016H2.8042C2.27377 0.666016 1.76506 0.87673 1.38999 1.2518C1.01491 1.62688 0.804199 2.13559 0.804199 2.66602V8.66602C0.804199 9.19645 1.01491 9.70516 1.38999 10.0803C1.76506 10.4553 2.27377 10.666 2.8042 10.666H3.47087C3.83906 10.666 4.13754 10.3676 4.13754 9.99937C4.13754 9.63116 3.83906 9.33269 3.47087 9.33269H2.8042C2.62739 9.33269 2.45782 9.26245 2.3328 9.13742C2.20777 9.0124 2.13754 8.84283 2.13754 8.66602V2.66602C2.13754 2.48921 2.20777 2.31964 2.3328 2.19461ZM6.8042 7.33269C6.8042 6.9645 7.10268 6.66602 7.47087 6.66602H13.4708C13.839 6.66602 14.1375 6.9645 14.1375 7.33269V13.3327C14.1375 13.7009 13.839 13.9994 13.4708 13.9994H7.47087C7.10268 13.9994 6.8042 13.7009 6.8042 13.3327V7.33269ZM7.47087 5.33269C6.3663 5.33269 5.47087 6.22812 5.47087 7.33269V13.3327C5.47087 14.4373 6.3663 15.3327 7.47087 15.3327H13.4708C14.5754 15.3327 15.4708 14.4373 15.4708 13.3327V7.33269C15.4708 6.22812 14.5754 5.33269 13.4708 5.33269H7.47087Z" fill="#6E7F95"/>
</g>
<defs>
<clipPath id="clip0_956_896">
<rect width="16" height="16" fill="white" transform="translate(0.140137)"/>
</clipPath>
</defs>
</svg>
