<svg width="17" height="16" viewBox="0 0 17 16" fill="none" xmlns="http://www.w3.org/2000/svg">
<path fill-rule="evenodd" clip-rule="evenodd" d="M2.85282 2.19461C2.97784 2.06959 3.14741 1.99935 3.32422 1.99935H9.32422C9.50103 1.99935 9.6706 2.06959 9.79563 2.19461C9.92065 2.31964 9.99089 2.48921 9.99089 2.66602V3.33268C9.99089 3.70087 10.2894 3.99935 10.6576 3.99935C11.0258 3.99935 11.3243 3.70087 11.3243 3.33268V2.66602C11.3243 2.13558 11.1135 1.62688 10.7385 1.2518C10.3634 0.87673 9.85466 0.666016 9.32422 0.666016H3.32422C2.79379 0.666016 2.28508 0.87673 1.91001 1.2518C1.53493 1.62688 1.32422 2.13559 1.32422 2.66602V8.66602C1.32422 9.19645 1.53493 9.70516 1.91001 10.0803C2.28508 10.4553 2.79379 10.666 3.32422 10.666H3.99089C4.35908 10.666 4.65756 10.3676 4.65756 9.99937C4.65756 9.63116 4.35908 9.33269 3.99089 9.33269H3.32422C3.14741 9.33269 2.97784 9.26245 2.85282 9.13742C2.72779 9.0124 2.65756 8.84283 2.65756 8.66602V2.66602C2.65756 2.48921 2.72779 2.31964 2.85282 2.19461ZM7.32422 7.33269C7.32422 6.9645 7.6227 6.66602 7.99089 6.66602H13.9909C14.3591 6.66602 14.6576 6.9645 14.6576 7.33269V13.3327C14.6576 13.7009 14.3591 13.9994 13.9909 13.9994H7.99089C7.6227 13.9994 7.32422 13.7009 7.32422 13.3327V7.33269ZM7.99089 5.33269C6.88632 5.33269 5.99089 6.22812 5.99089 7.33269V13.3327C5.99089 14.4373 6.88632 15.3327 7.99089 15.3327H13.9909C15.0955 15.3327 15.9909 14.4373 15.9909 13.3327V7.33269C15.9909 6.22812 15.0955 5.33269 13.9909 5.33269H7.99089Z" fill="#6E7F95"/>
</svg>
