<svg width="25" height="24" viewBox="0 0 25 24" fill="none" xmlns="http://www.w3.org/2000/svg">
<path fill-rule="evenodd" clip-rule="evenodd" d="M5.90991 4C5.35763 4 4.90991 4.44772 4.90991 5V19C4.90991 19.4288 5.17981 19.7946 5.559 19.9367L16.2028 9.29289C16.5933 8.90237 17.2265 8.90237 17.617 9.29289L20.9099 12.5858V5C20.9099 4.44771 20.4622 4 19.9099 4H5.90991ZM22.9099 14.999V5C22.9099 3.34315 21.5668 2 19.9099 2H5.90991C4.25306 2 2.90991 3.34315 2.90991 5V19C2.90991 20.6569 4.25306 22 5.90991 22H19.9099C21.5668 22 22.9099 20.6569 22.9099 19V15.001V14.999ZM20.9099 15.4142L16.9099 11.4142L8.32412 20H19.9099C20.4622 20 20.9099 19.5523 20.9099 19V15.4142ZM9.40991 8C9.13377 8 8.90991 8.22386 8.90991 8.5C8.90991 8.77614 9.13377 9 9.40991 9C9.68605 9 9.90991 8.77614 9.90991 8.5C9.90991 8.22386 9.68605 8 9.40991 8ZM6.90991 8.5C6.90991 7.11929 8.0292 6 9.40991 6C10.7906 6 11.9099 7.11929 11.9099 8.5C11.9099 9.88071 10.7906 11 9.40991 11C8.0292 11 6.90991 9.88071 6.90991 8.5Z" fill="#1A2028"/>
</svg>
