<svg width="25" height="25" viewBox="0 0 25 25" fill="none" xmlns="http://www.w3.org/2000/svg">
<path fill-rule="evenodd" clip-rule="evenodd" d="M5.44995 4.5C4.89767 4.5 4.44995 4.94772 4.44995 5.5V19.5C4.44995 19.9288 4.71985 20.2946 5.09904 20.4367L15.7429 9.79289C16.1334 9.40237 16.7666 9.40237 17.1571 9.79289L20.45 13.0858V5.5C20.45 4.94771 20.0023 4.5 19.45 4.5H5.44995ZM22.45 15.499V5.5C22.45 3.84315 21.1069 2.5 19.45 2.5H5.44995C3.7931 2.5 2.44995 3.84315 2.44995 5.5V19.5C2.44995 21.1569 3.7931 22.5 5.44995 22.5H19.45C21.1069 22.5 22.45 21.1569 22.45 19.5V15.501V15.499ZM20.45 15.9142L16.45 11.9142L7.86416 20.5H19.45C20.0023 20.5 20.45 20.0523 20.45 19.5V15.9142ZM8.94995 8.5C8.67381 8.5 8.44995 8.72386 8.44995 9C8.44995 9.27614 8.67381 9.5 8.94995 9.5C9.22609 9.5 9.44995 9.27614 9.44995 9C9.44995 8.72386 9.22609 8.5 8.94995 8.5ZM6.44995 9C6.44995 7.61929 7.56924 6.5 8.94995 6.5C10.3307 6.5 11.45 7.61929 11.45 9C11.45 10.3807 10.3307 11.5 8.94995 11.5C7.56924 11.5 6.44995 10.3807 6.44995 9Z" fill="white"/>
</svg>
