<svg width="40" height="28" viewBox="0 0 40 28" fill="none" xmlns="http://www.w3.org/2000/svg">
<path d="M38 18H34V22H35.4C35.7313 22 36 22.225 36 22.5V23.5C36 23.775 35.7313 24 35.4 24H4.6C4.26875 24 4 23.775 4 23.5V22.5C4 22.225 4.26875 22 4.6 22H6V18H2C0.89375 18 0 18.8937 0 20V26C0 27.1063 0.89375 28 2 28H38C39.1063 28 40 27.1063 40 26V20C40 18.8937 39.1063 18 38 18ZM32 22V2.01875C32 0.9 31.0938 0 29.9813 0H10.025C8.90625 0 8 0.90625 8 2.01875V22H32ZM13.2 10.625L14.7937 9.04375C15.0562 8.78125 15.4812 8.78125 15.7437 9.05L18.325 11.65L24.275 5.75C24.5375 5.4875 24.9625 5.4875 25.225 5.75625L26.8062 7.35C27.0688 7.6125 27.0687 8.0375 26.8 8.3L18.7812 16.25C18.5187 16.5125 18.0938 16.5125 17.8312 16.2437L13.2 11.575C12.9312 11.3125 12.9375 10.8875 13.2 10.625Z" fill="black"/>
</svg>
