<svg width="40" height="40" viewBox="0 0 40 40" fill="none" xmlns="http://www.w3.org/2000/svg">
<path fill-rule="evenodd" clip-rule="evenodd" d="M8.75 37.5C10.4076 37.5 11.9973 36.8415 13.1694 35.6694C14.3415 34.4973 15 32.9076 15 31.25C15 29.5924 14.3415 28.0027 13.1694 26.8306C11.9973 25.6585 10.4076 25 8.75 25C7.0924 25 5.50269 25.6585 4.33058 26.8306C3.15848 28.0027 2.5 29.5924 2.5 31.25C2.5 32.9076 3.15848 34.4973 4.33058 35.6694C5.50269 36.8415 7.0924 37.5 8.75 37.5ZM31.25 15C32.9076 15 34.4973 14.3415 35.6694 13.1694C36.8415 11.9973 37.5 10.4076 37.5 8.75C37.5 7.0924 36.8415 5.50269 35.6694 4.33058C34.4973 3.15848 32.9076 2.5 31.25 2.5C29.5924 2.5 28.0027 3.15848 26.8306 4.33058C25.6585 5.50269 25 7.0924 25 8.75C25 10.4076 25.6585 11.9973 26.8306 13.1694C28.0027 14.3415 29.5924 15 31.25 15ZM31.25 37.5C32.9076 37.5 34.4973 36.8415 35.6694 35.6694C36.8415 34.4973 37.5 32.9076 37.5 31.25C37.5 29.5924 36.8415 28.0027 35.6694 26.8306C34.4973 25.6585 32.9076 25 31.25 25C29.5924 25 28.0027 25.6585 26.8306 26.8306C25.6585 28.0027 25 29.5924 25 31.25C25 32.9076 25.6585 34.4973 26.8306 35.6694C28.0027 36.8415 29.5924 37.5 31.25 37.5ZM40 8.75C40 11.0706 39.0781 13.2962 37.4372 14.9372C35.7962 16.5781 33.5706 17.5 31.25 17.5C28.9294 17.5 26.7038 16.5781 25.0628 14.9372C23.4219 13.2962 22.5 11.0706 22.5 8.75C22.5 6.42936 23.4219 4.20376 25.0628 2.56282C26.7038 0.921872 28.9294 0 31.25 0C33.5706 0 35.7962 0.921872 37.4372 2.56282C39.0781 4.20376 40 6.42936 40 8.75ZM17.5 31.25C17.5 33.5706 16.5781 35.7962 14.9372 37.4372C13.2962 39.0781 11.0706 40 8.75 40C6.42936 40 4.20376 39.0781 2.56282 37.4372C0.921872 35.7962 0 33.5706 0 31.25C0 28.9294 0.921872 26.7038 2.56282 25.0628C4.20376 23.4219 6.42936 22.5 8.75 22.5C11.0706 22.5 13.2962 23.4219 14.9372 25.0628C16.5781 26.7038 17.5 28.9294 17.5 31.25ZM31.25 40C33.5706 40 35.7962 39.0781 37.4372 37.4372C39.0781 35.7962 40 33.5706 40 31.25C40 28.9294 39.0781 26.7038 37.4372 25.0628C35.7962 23.4219 33.5706 22.5 31.25 22.5C28.9294 22.5 26.7038 23.4219 25.0628 25.0628C23.4219 26.7038 22.5 28.9294 22.5 31.25C22.5 33.5706 23.4219 35.7962 25.0628 37.4372C26.7038 39.0781 28.9294 40 31.25 40ZM8.75 12.5C9.24246 12.5 9.73009 12.403 10.1851 12.2145C10.64 12.0261 11.0534 11.7499 11.4017 11.4017C11.7499 11.0534 12.0261 10.64 12.2145 10.1851C12.403 9.73009 12.5 9.24246 12.5 8.75C12.5 8.25754 12.403 7.76991 12.2145 7.31494C12.0261 6.85997 11.7499 6.44657 11.4017 6.09835C11.0534 5.75013 10.64 5.47391 10.1851 5.28545C9.73009 5.097 9.24246 5 8.75 5C7.75544 5 6.80161 5.39509 6.09835 6.09835C5.39509 6.80161 5 7.75544 5 8.75C5 9.74456 5.39509 10.6984 6.09835 11.4017C6.80161 12.1049 7.75544 12.5 8.75 12.5ZM8.75 17.5C11.0706 17.5 13.2962 16.5781 14.9372 14.9372C16.5781 13.2962 17.5 11.0706 17.5 8.75C17.5 6.42936 16.5781 4.20376 14.9372 2.56282C13.2962 0.921872 11.0706 0 8.75 0C6.42936 0 4.20376 0.921872 2.56282 2.56282C0.921872 4.20376 0 6.42936 0 8.75C0 11.0706 0.921872 13.2962 2.56282 14.9372C4.20376 16.5781 6.42936 17.5 8.75 17.5Z" fill="black"/>
</svg>
